# xmcd
#
# Track frame offsets: 
#        150
#        14834
#        28101
#        41186
#        58615
#        71865
#        87426
#
# Disc length: 1420 seconds
#
# Revision: 0
# Processed by: cddbd v1.5.2PL0 Copyright (c) Steve Scherf et al.
# Submitted via: ExactAudioCopy v1.0b3
#
DISCID=66058a07
DTITLE=Miss Tess and The Talkbacks - The Love I Have For You
DYEAR=2013
DGENRE=Alt. Country
TTITLE0=Sorry You're Sick
TTITLE1=The Love I Have for You
TTITLE2=The Alabama Waltz
TTITLE3=Night Life
TTITLE4=Bet No One Ever Hurt Me This Bad
TTITLE5=Give It up or Let Me Go
TTITLE6=Hold Back the Tears
EXTD=
EXTT0=
EXTT1=
EXTT2=
EXTT3=
EXTT4=
EXTT5=
EXTT6=
PLAYORDER=
